<svg xmlns="http://www.w3.org/2000/svg" version="1.1" viewBox="-5.0 -10.0 110.0 135.0">
 <path d="m6.7617 90.078c-3.9492 0-3.9492 6 0 6h86.473c3.9492 0 3.9492-6 0-6zm45.086-8.6406 33.125-33.125c1.6328-1.6328 0.48438-4.457-1.8477-4.457l-15.34-0.003907-4.4023-37.492c-0.089843-1.3594-1.2227-2.4375-2.6094-2.4375h-21.547v0.003906c-1.3086 0-2.4375 0.98047-2.5898 2.3125l-4.4219 37.617h-15.34c-2.3086 0-3.4922 2.8086-1.8477 4.457l33.125 33.125c1.0234 1.0195 2.6758 1.0195 3.6953 0z" fill-rule="evenodd"/>
<text x="0.0" y="117.5" font-size="5.0" font-weight="bold" font-family="Arbeit Regular, Helvetica, Arial-Unicode, Arial, Sans-serif" fill="#000000">Created by ICONIC</text><text x="0.0" y="122.5" font-size="5.0" font-weight="bold" font-family="Arbeit Regular, Helvetica, Arial-Unicode, Arial, Sans-serif" fill="#000000">from Noun Project</text></svg>